<svg width="8" height="8" viewBox="0 0 8 8" fill="none" xmlns="http://www.w3.org/2000/svg">
<path d="M3.90263 2.60185C3.18584 2.60185 2.60088 3.18681 2.60088 3.90361C2.60088 4.62041 3.18584 5.20537 3.90263 5.20537C4.61943 5.20537 5.20439 4.62041 5.20439 3.90361C5.20439 3.18681 4.61943 2.60185 3.90263 2.60185ZM7.80693 3.90361C7.80693 3.36455 7.81181 2.83037 7.78154 2.29228C7.75127 1.66728 7.60869 1.1126 7.15166 0.655564C6.69365 0.197556 6.13994 0.0559545 5.51494 0.0256811C4.97588 -0.00459235 4.4417 0.000290473 3.90361 0.000290473C3.36455 0.000290473 2.83037 -0.00459235 2.29228 0.0256811C1.66728 0.0559545 1.1126 0.198533 0.655564 0.655564C0.197556 1.11357 0.0559545 1.66728 0.0256811 2.29228C-0.00459235 2.83135 0.000290473 3.36553 0.000290473 3.90361C0.000290473 4.4417 -0.00459235 4.97685 0.0256811 5.51494C0.0559545 6.13994 0.198533 6.69463 0.655564 7.15166C1.11357 7.60967 1.66728 7.75127 2.29228 7.78154C2.83135 7.81181 3.36552 7.80693 3.90361 7.80693C4.44267 7.80693 4.97685 7.81181 5.51494 7.78154C6.13994 7.75127 6.69463 7.60869 7.15166 7.15166C7.60967 6.69365 7.75127 6.13994 7.78154 5.51494C7.81279 4.97685 7.80693 4.44267 7.80693 3.90361ZM3.90263 5.90654C2.79424 5.90654 1.8997 5.01201 1.8997 3.90361C1.8997 2.79521 2.79424 1.90068 3.90263 1.90068C5.01103 1.90068 5.90556 2.79521 5.90556 3.90361C5.90556 5.01201 5.01103 5.90654 3.90263 5.90654ZM5.9876 2.28642C5.72881 2.28642 5.51982 2.07744 5.51982 1.81865C5.51982 1.55986 5.72881 1.35088 5.9876 1.35088C6.24639 1.35088 6.45537 1.55986 6.45537 1.81865C6.45545 1.8801 6.4434 1.94096 6.41992 1.99775C6.39644 2.05454 6.36199 2.10614 6.31853 2.14959C6.27508 2.19304 6.22348 2.22749 6.1667 2.25097C6.10991 2.27445 6.04905 2.2865 5.9876 2.28642Z" fill="white"/>
</svg>
